<svg width="14" height="18" viewBox="0 0 14 18" fill="none" xmlns="http://www.w3.org/2000/svg">
<path d="M11.395 2.28H11.215V1.26C11.215 0.900005 10.945 0.630005 10.585 0.630005C10.225 0.630005 9.955 0.900005 9.955 1.26V2.28H8.755V1.26C8.755 0.900005 8.485 0.630005 8.125 0.630005C7.765 0.630005 7.495 0.900005 7.495 1.26V2.28H6.295V1.26C6.295 0.900005 6.025 0.630005 5.665 0.630005C5.305 0.630005 5.035 0.900005 5.035 1.26V2.28H3.835V1.26C3.835 0.900005 3.565 0.630005 3.205 0.630005C2.845 0.630005 2.575 0.900005 2.575 1.26V2.28H2.395C1.405 2.28 0.625 3.06 0.625 4.05V15.57C0.625 16.56 1.405 17.34 2.395 17.34H11.395C12.385 17.34 13.165 16.56 13.165 15.57V4.05C13.165 3.09 12.355 2.28 11.395 2.28ZM11.905 15.57C11.905 15.84 11.665 16.08 11.395 16.08H2.395C2.125 16.08 1.885 15.84 1.885 15.57V4.05C1.885 3.78 2.125 3.54 2.395 3.54H2.575V4.56C2.575 4.92 2.845 5.19 3.205 5.19C3.565 5.19 3.835 4.92 3.835 4.56V3.54H5.035V4.56C5.035 4.92 5.305 5.19 5.665 5.19C6.025 5.19 6.295 4.92 6.295 4.56V3.54H7.495V4.56C7.495 4.92 7.765 5.19 8.125 5.19C8.485 5.19 8.755 4.92 8.755 4.56V3.54H9.955V4.56C9.955 4.92 10.225 5.19 10.585 5.19C10.945 5.19 11.215 4.92 11.215 4.56V3.54H11.395C11.665 3.54 11.905 3.78 11.905 4.05V15.57Z" fill="#2EAC1B"/>
<path d="M11.905 15.57C11.905 15.84 11.665 16.08 11.395 16.08H2.395C2.125 16.08 1.885 15.84 1.885 15.57V4.05C1.885 3.78 2.125 3.54 2.395 3.54H2.575V4.56C2.575 4.92 2.845 5.19 3.205 5.19C3.565 5.19 3.835 4.92 3.835 4.56V3.54H5.035V4.56C5.035 4.92 5.305 5.19 5.665 5.19C6.025 5.19 6.295 4.92 6.295 4.56V3.54H7.495V4.56C7.495 4.92 7.765 5.19 8.125 5.19C8.485 5.19 8.755 4.92 8.755 4.56V3.54H9.955V4.56C9.955 4.92 10.225 5.19 10.585 5.19C10.945 5.19 11.215 4.92 11.215 4.56V3.54H11.395C11.665 3.54 11.905 3.78 11.905 4.05V15.57Z" fill="#2EAC1B"/>
</svg>
