<svg width="18" height="20" viewBox="0 0 18 20" fill="none" xmlns="http://www.w3.org/2000/svg">
<path fill-rule="evenodd" clip-rule="evenodd" d="M6.33333 0.833328C6.11232 0.833328 5.90036 0.921128 5.74407 1.0774L0.744075 6.0774C0.5878 6.23369 0.5 6.44564 0.5 6.66666V16.6667C0.5 18.0474 1.61929 19.1667 3 19.1667H3.83333C4.29357 19.1667 4.66667 18.7936 4.66667 18.3333C4.66667 17.8731 4.29357 17.5 3.83333 17.5H3C2.53977 17.5 2.16667 17.1269 2.16667 16.6667V7.49999H6.33333C6.79358 7.49999 7.16667 7.12689 7.16667 6.66666V2.49999H13C13.4603 2.49999 13.8333 2.87309 13.8333 3.33333V9.16666C13.8333 9.62691 14.2064 9.99999 14.6667 9.99999C15.1269 9.99999 15.5 9.62691 15.5 9.16666V3.33333C15.5 1.95262 14.3808 0.833328 13 0.833328H6.33333ZM5.5 5.83333H3.34518L5.5 3.6785V5.83333ZM6.58983 19.6357C6.72142 19.7979 6.91267 19.931 7.15383 19.9802C7.37967 20.0263 7.57692 19.9842 7.71358 19.9343C7.96508 19.8426 8.163 19.6696 8.29208 19.5422C8.49508 19.3421 8.70758 19.0707 8.91908 18.7641C9.8435 18.4452 11.1426 18.1517 12.4058 17.9668C13.1081 17.864 13.7638 17.8002 14.3158 17.7786C14.5344 18.036 14.7333 18.2578 14.899 18.4254C15.0027 18.5302 15.1179 18.6392 15.2307 18.7226C15.2815 18.7602 15.3766 18.8267 15.4992 18.8744C15.5629 18.8992 15.9818 19.0592 16.3687 18.7474C16.5963 18.564 16.8071 18.3587 16.9537 18.1271C17.101 17.8944 17.2399 17.5392 17.1243 17.1354C17.0109 16.7401 16.7157 16.5184 16.4983 16.404C16.2766 16.2873 16.0274 16.2223 15.7988 16.1822C15.5917 16.1459 15.3573 16.1232 15.1028 16.112C14.5868 15.4679 13.9838 14.6668 13.4108 13.8498C12.9083 13.1333 12.4398 12.42 12.0758 11.7989C12.1133 11.6387 12.1445 11.4847 12.1688 11.3383C12.2103 11.0877 12.2353 10.8367 12.2298 10.6009C12.2246 10.3747 12.1903 10.1024 12.0667 9.84808C11.9295 9.56625 11.68 9.30966 11.3068 9.20916C10.972 9.11899 10.6528 9.18658 10.4078 9.27716C10.0299 9.41699 9.82275 9.72716 9.75117 10.0301C9.69067 10.2864 9.72342 10.5339 9.76133 10.7107C9.83967 11.0762 10.0224 11.4963 10.2329 11.9077C10.2517 11.9443 10.2709 11.9814 10.2906 12.0187C10.0919 12.6727 9.79817 13.444 9.44933 14.2416C8.938 15.4107 8.33792 16.5697 7.82108 17.3983C7.46825 17.5462 7.14267 17.7153 6.8955 17.9097C6.72717 18.0421 6.50158 18.2575 6.39367 18.5723C6.261 18.9595 6.35508 19.3462 6.58983 19.6357ZM12.1645 16.3177C11.4863 16.4169 10.7871 16.5472 10.1248 16.6993C10.4201 16.1269 10.7108 15.5167 10.9763 14.9095C11.1272 14.5646 11.2724 14.2151 11.4071 13.8692C11.6133 14.1812 11.8285 14.4963 12.0463 14.8067C12.3818 15.2851 12.7278 15.7592 13.0632 16.2031C12.7655 16.2352 12.4639 16.2739 12.1645 16.3177ZM11.3841 10.3202C11.384 10.3191 11.3839 10.3186 11.3838 10.3186C11.3838 10.3185 11.3839 10.3198 11.3842 10.3227C11.3842 10.3217 11.3841 10.3208 11.3841 10.3202Z" fill="white"/>
</svg>
