<svg width="18" height="18" viewBox="0 0 18 18" fill="none" xmlns="http://www.w3.org/2000/svg">
<path d="M11.3366 9.3466L11.0766 8.9195C10.9083 9.022 10.8159 9.2137 10.8406 9.4092C10.8652 9.6046 11.0023 9.7674 11.1908 9.8249L11.3366 9.3466ZM6.66345 9.3466L6.80928 9.8249C6.99774 9.7674 7.13485 9.6046 7.15955 9.4092C7.18415 9.2137 7.09175 9.022 6.92344 8.9195L6.66345 9.3466ZM13.0001 5.5C13.0001 6.94799 12.231 8.2168 11.0766 8.9195L11.5966 9.7737C13.0366 8.8971 14.0001 7.3113 14.0001 5.5H13.0001ZM9.00005 1.5C11.2092 1.5 13.0001 3.29086 13.0001 5.5H14.0001C14.0001 2.73858 11.7615 0.5 9.00005 0.5V1.5ZM5.00001 5.5C5.00001 3.29086 6.79087 1.5 9.00005 1.5V0.5C6.23859 0.5 4.00001 2.73858 4.00001 5.5H5.00001ZM6.92344 8.9195C5.76909 8.2168 5.00001 6.948 5.00001 5.5H4.00001C4.00001 7.3113 4.96347 8.8971 6.40347 9.7737L6.92344 8.9195ZM6.51763 8.8683C3.36088 9.8309 0.983614 12.5804 0.565494 15.9402L1.55783 16.0637C1.92643 13.1018 4.02386 10.6742 6.80928 9.8249L6.51763 8.8683ZM0.565494 15.9402C0.454984 16.8282 1.1906 17.5 2.00001 17.5V16.5C1.70486 16.5 1.53193 16.2719 1.55783 16.0637L0.565494 15.9402ZM2.00001 17.5H16.0001V16.5H2.00001V17.5ZM16.0001 17.5C16.8095 17.5 17.5451 16.8282 17.4346 15.9402L16.4422 16.0637C16.4681 16.2719 16.2952 16.5 16.0001 16.5V17.5ZM17.4346 15.9402C17.0165 12.5804 14.6392 9.8309 11.4824 8.8683L11.1908 9.8249C13.9762 10.6742 16.0736 13.1018 16.4422 16.0637L17.4346 15.9402Z" fill="#2EAC1B"/>
<path d="M10.8406 9.4092C10.8159 9.2137 10.9083 9.022 11.0766 8.9195C12.231 8.2168 13.0001 6.94799 13.0001 5.5C13.0001 3.29086 11.2092 1.5 9.00005 1.5C6.79087 1.5 5.00001 3.29086 5.00001 5.5C5.00001 6.948 5.76909 8.2168 6.92344 8.9195C7.09175 9.022 7.18415 9.2137 7.15955 9.4092C7.13485 9.6046 6.99774 9.7674 6.80928 9.8249C4.02386 10.6742 1.92643 13.1018 1.55783 16.0637C1.53193 16.2719 1.70486 16.5 2.00001 16.5H16.0001C16.2952 16.5 16.4681 16.2719 16.4422 16.0637C16.0736 13.1018 13.9762 10.6742 11.1908 9.8249C11.0023 9.7674 10.8652 9.6046 10.8406 9.4092Z" fill="#2EAC1B"/>
</svg>
